<?xml version="1.0" encoding="UTF-8" standalone="no"?>
<!-- Created with Inkscape (http://www.inkscape.org/) -->

<svg
   xmlns:osb="http://www.openswatchbook.org/uri/2009/osb"
   xmlns:dc="http://purl.org/dc/elements/1.1/"
   xmlns:cc="http://creativecommons.org/ns#"
   xmlns:rdf="http://www.w3.org/1999/02/22-rdf-syntax-ns#"
   xmlns:svg="http://www.w3.org/2000/svg"
   xmlns="http://www.w3.org/2000/svg"
   xmlns:xlink="http://www.w3.org/1999/xlink"
   xmlns:sodipodi="http://sodipodi.sourceforge.net/DTD/sodipodi-0.dtd"
   xmlns:inkscape="http://www.inkscape.org/namespaces/inkscape"
   width="128"
   height="128"
   id="svg2"
   version="1.1"
   inkscape:version="0.48.4 r9939"
   sodipodi:docname="amoeba.svg">
  <defs
     id="defs4">
    <linearGradient
       id="linearGradient5299"
       osb:paint="solid">
      <stop
         style="stop-color:#1f651d;stop-opacity:1;"
         offset="0"
         id="stop5301" />
    </linearGradient>
    <linearGradient
       id="linearGradient5289">
      <stop
         style="stop-color:#000000;stop-opacity:1;"
         offset="0"
         id="stop5291" />
      <stop
         style="stop-color:#000000;stop-opacity:0;"
         offset="1"
         id="stop5293" />
    </linearGradient>
    <linearGradient
       inkscape:collect="always"
       xlink:href="#linearGradient5299"
       id="linearGradient5303"
       x1="21.5"
       y1="225.5"
       x2="420.5"
       y2="225.5"
       gradientUnits="userSpaceOnUse"
       gradientTransform="matrix(4.0184547,0,0,4.0179283,-29.63622,-27.629484)" />
  </defs>
  <sodipodi:namedview
     id="base"
     pagecolor="#ffffff"
     bordercolor="#666666"
     borderopacity="1.0"
     inkscape:pageopacity="0.0"
     inkscape:pageshadow="2"
     inkscape:zoom="2.8284271"
     inkscape:cx="83.259603"
     inkscape:cy="47.620606"
     inkscape:document-units="px"
     inkscape:current-layer="layer1"
     showgrid="false"
     inkscape:window-width="1280"
     inkscape:window-height="747"
     inkscape:window-x="-3"
     inkscape:window-y="30"
     inkscape:window-maximized="1" />
  <metadata
     id="metadata7">
    <rdf:RDF>
      <cc:Work
         rdf:about="">
        <dc:format>image/svg+xml</dc:format>
        <dc:type
           rdf:resource="http://purl.org/dc/dcmitype/StillImage" />
        <dc:title />
      </cc:Work>
    </rdf:RDF>
  </metadata>
  <g
     inkscape:label="Layer 1"
     inkscape:groupmode="layer"
     id="layer1"
     transform="translate(0,-924.36218)">
    <path
       transform="matrix(0.24885188,0,0,0.24888448,7.375029,931.23873)"
       style="opacity:0.49099097;fill:#96c837;fill-opacity:1;stroke:url(#linearGradient5303);stroke-width:7.23274469;stroke-miterlimit:4;stroke-opacity:0.98529412"
       d="m 420,225.5 c 0,22.63117 -3.68462,44.39094 -10.47956,64.6978 -8.24459,24.63914 -21.06817,47.13931 -37.44491,66.46175 -21.1408,24.94343 -48.20269,44.5914 -78.97884,56.70933 C 270.74218,422.17085 246.42805,427 221,427 178.68961,427 139.46326,413.62978 107.217,390.83432 77.966272,370.15646 54.459032,341.72316 39.603287,308.47897 28.295276,283.17389 22,255.08135 22,225.5 22,172.25013 42.399327,123.82463 75.716752,87.798728 93.999901,68.029283 116.17312,51.993771 141.00015,40.943987 165.48147,30.048072 192.54319,24 221,24 271.937,24 318.40416,43.378111 353.60343,75.250894 394.35218,112.1487 420,165.79154 420,225.5 z"
       id="membrane"
       inkscape:connector-curvature="0"
       sodipodi:nodetypes="sssssssssssss" />
    <path
       sodipodi:type="arc"
       style="opacity:0.49099097;fill:#ff5d00;fill-opacity:1;stroke:#000000;stroke-width:4.01819134;stroke-opacity:0.98529412"
       id="path3027"
       sodipodi:cx="225.5"
       sodipodi:cy="242.5"
       sodipodi:rx="62.5"
       sodipodi:ry="60.5"
       d="m 288,242.5 c 0,33.41323 -27.9822,60.5 -62.5,60.5 -34.5178,0 -62.5,-27.08677 -62.5,-60.5 0,-33.41323 27.9822,-60.5 62.5,-60.5 34.5178,0 62.5,27.08677 62.5,60.5 z"
       transform="matrix(0.24885188,0,0,0.24888448,10.610103,919.29227)" />
  </g>
</svg>
